<svg xmlns="http://www.w3.org/2000/svg" height="40px" viewBox="0 -960 960 960" width="40px" fill="#000000"><path d="M536.67-235.33q22.33 56-15.34 105.66Q483.67-80 420-80q-32.33 0-59.5-16t-41.83-46.67Q246.33-134 191.5-188.5T142.67-316q-30-16.33-46.34-47.83Q80-395.33 80-427.33q0-65 49.83-99.17 49.84-34.17 111.5-7.5L302-509.33q18-35 50.67-55.17 32.66-20.17 71.33-22.17v-84.66h52.67v90q39.66 9 68.33 40.16 28.67 31.17 39 66.5h89.33v53.34h-84.66Q586-382.67 566.5-350T512-299.33l24.67 64ZM300-208q-2-27 2.83-54.5 4.84-27.5 14.5-53.5-25.66 13-53.5 16.5-27.83 3.5-55.83.17 1.33 35 29.5 63.16Q265.67-208 300-208Zm-74-156.67q37.33 0 75.17-17 37.83-17 60.83-31.66l-134.67-55.34Q201-480 173.83-466.83q-27.16 13.16-27.16 39.5 0 26 28 44.33T226-364.67Zm194 218q29 0 46.5-19.5t7.5-44.5l-58-148.66q-18.33 30-33.83 62.33t-15.5 74.33q0 24.34 13.5 50.17 13.5 25.83 39.83 25.83ZM485.33-362Q506-375.33 514-394.83t8-41.5q0-34-24-58.34Q474-519 440.33-519q-22 0-42.33 9.33-20.33 9.34-31.33 29.67l84 34.67L485.33-362Zm-168 46Z"/></svg>